<?xml version="1.0"?>
<svg xmlns="http://www.w3.org/2000/svg" xmlns:xlink="http://www.w3.org/1999/xlink" version="1.1" viewBox="0 0 252 252" width="500px" height="500px"><g fill="none" fill-rule="nonzero" stroke="none" stroke-width="1" stroke-linecap="butt" stroke-linejoin="miter" stroke-miterlimit="10" stroke-dasharray="" stroke-dashoffset="0" font-family="none" font-weight="none" font-size="none" text-anchor="none" style="mix-blend-mode: normal"><path d="M0,252v-252h252v252z" fill="none"/><path d="M12.6,252c-6.95879,0 -12.6,-5.64121 -12.6,-12.6v-226.8c0,-6.95879 5.64121,-12.6 12.6,-12.6h226.8c6.95879,0 12.6,5.64121 12.6,12.6v226.8c0,6.95879 -5.64121,12.6 -12.6,12.6z" fill="#f47321"/><g fill="#f8f9fa"><g id="surface1"><path d="M196.56,46.368c-3.90009,0 -7.056,3.15591 -7.056,7.056c0,1.03359 0.26184,1.9845 0.6615,2.8665l-28.224,39.4695c-0.2205,-0.01378 -0.441,0 -0.6615,0c-1.40569,0 -2.75625,0.38587 -3.85875,1.1025l-24.36525,-12.1275c-0.23428,-3.69338 -3.3075,-6.615 -7.056,-6.615c-3.90009,0 -7.056,3.15591 -7.056,7.056c0,0.37209 0.05513,0.74419 0.11025,1.1025l-25.7985,20.5065c-0.78553,-0.30319 -1.63997,-0.441 -2.53575,-0.441c-3.528,0 -6.42206,2.57709 -6.94575,5.9535l-24.0345,9.702c-1.19897,-0.93712 -2.67356,-1.5435 -4.29975,-1.5435c-3.90009,0 -7.056,3.15591 -7.056,7.056c0,3.90009 3.15591,7.056 7.056,7.056c3.55556,0 6.46341,-2.63222 6.94575,-6.06375l24.0345,-9.59175c1.19897,0.93712 2.67356,1.5435 4.29975,1.5435c3.90009,0 7.056,-3.15591 7.056,-7.056c0,-0.37209 -0.05513,-0.74419 -0.11025,-1.1025l25.7985,-20.5065c0.78553,0.30319 1.63997,0.441 2.53575,0.441c1.40569,0 2.75625,-0.38587 3.85875,-1.1025l24.36525,12.1275c0.23428,3.69338 3.3075,6.615 7.056,6.615c3.90009,0 7.056,-3.15591 7.056,-7.056c0,-1.03359 -0.26184,-1.9845 -0.6615,-2.8665l28.224,-39.4695c0.2205,0.01378 0.441,0 0.6615,0c3.90009,0 7.056,-3.15591 7.056,-7.056c0,-3.90009 -3.15591,-7.056 -7.056,-7.056zM182.448,92.232v123.48h28.224v-123.48zM111.888,123.984v91.728h28.224v-91.728zM147.168,141.624v74.088h28.224v-74.088zM76.608,152.208v63.504h28.224v-63.504zM41.328,166.32v49.392h28.224v-49.392z"/></g></g></g></svg>
